<?xml version="1.0" encoding="utf-8"?>
<!-- Generator: Adobe Illustrator 24.2.1, SVG Export Plug-In . SVG Version: 6.00 Build 0)  -->
<svg version="1.1" id="Layer_1" xmlns="http://www.w3.org/2000/svg" xmlns:xlink="http://www.w3.org/1999/xlink" x="0px" y="0px"
	 width="303.4px" height="154.1px" viewBox="0 0 303.4 154.1" style="enable-background:new 0 0 303.4 154.1;" xml:space="preserve"
	>
<style type="text/css">
	.st0{fill:#444447;}
</style>
<g>
	<path d="M2.8,2.1L2.9,0h23.1C32.5,0,37.5,2.1,41,6.2c3.5,4.2,5.3,10.4,5.3,18.6c0,5.4-1.4,11-4.2,16.8c-2.8,5.8-5.5,9.6-7.9,11.2
		l17.6,41.8l4.7,0.4c0,0.1,0,0.8-0.1,2.1L46,97.3l-18-42.8H15.3v40l6.6,0.6c0,0.1,0,0.8-0.1,2.1L2.8,97.3l0.1-1.9l4.9-1
		c0.4-0.1,0.8-0.5,1-1.2V4.3C8.7,3.5,8.3,3,7.8,2.9L2.8,2.1z M25.5,2.1H15.3v50.4h16.2c3.3-5.5,5.5-10.3,6.6-14.5
		c1.1-4.2,1.7-8.3,1.7-12.3c0-7.8-1.2-13.7-3.7-17.6C33.7,4.1,30.2,2.1,25.5,2.1z"/>
	<path d="M62.1,97.3l0.1-1.9l4.9-1c0.6-0.1,1-0.7,1.1-1.8h0.1V4.9h-0.1c-0.1-1.2-0.5-1.9-1.1-1.9l-4.9-0.7l-0.1-2.1L81.2,0
		c0,0.1,0,0.8,0.1,2.1l-6.5,0.8v91.6l6.5,0.6c0,0.1,0,0.8-0.1,2.1L62.1,97.3z"/>
	<path d="M104.5,2.8H88.2l-1.5,18.3L84.9,20l0.9-17.2h-0.1l0.2-1.1L86,0l0.2,0.1V0h43.1l1.2,20l-1.9,1.1l-1.5-18.3h-16.6v91.8
		l6.9,0.6c0,0.1,0,0.8-0.1,2.1l-19,0.1c0-0.8,0-1.5,0.1-1.9l4.9-1c0.6-0.1,1-0.7,1.1-1.8V2.8z"/>
	<path d="M155.7,0c0,0.1,0,0.8,0.1,2.1l-6.5,0.8v52.5c0,16.1,1.9,26.8,5.8,32.1c1.8,2.6,3.7,4.4,5.6,5.3c1.9,1,4.1,1.5,6.7,1.5
		s4.9-0.5,7-1.5c2.1-1,4.1-2.9,6.1-5.6c4.2-5.6,6.3-16.1,6.3-31.8V5.1c-0.1-1.2-0.5-1.9-1.1-1.9l-6.8-1c-0.1-0.6-0.1-1.2-0.1-2.1
		l18-0.1c0,0.1,0,0.8,0.1,2.1l-7.9,1.2v52.2c0,28.1-7.2,42.2-21.5,42.2c-3.5,0-6.5-0.5-9.2-1.6c-2.6-1.1-5.2-3-7.6-5.9
		c-5.1-5.8-7.7-17.4-7.7-34.7V4.7c-0.3-1.1-0.6-1.7-1.1-1.8l-4.9-0.7c-0.1-0.6-0.1-1.2-0.1-2.1L155.7,0z"/>
	<path d="M195.8,97.3l0.1-1.9l4.9-1c0.4-0.1,0.8-0.7,1.1-1.8L222.5,0h6.3l21.8,94.5l6.5,0.6c0,0.1,0,0.8-0.1,2.1l-19,0.1
		c0-0.8,0-1.5,0.1-1.9l4.9-1c0.5-0.1,0.8-0.6,0.8-1.7l-5.2-22.6H209l-5,24.2l11,0.8c0,0.1,0,0.8-0.1,2.1L195.8,97.3z M223.2,2.6
		l-13.6,64.7H238L223.2,2.6z"/>
	<path d="M279.9,0c0,0.1,0,0.8,0.1,2.1l-6.5,0.8v91.5h26.2l1.9-22.2l1.8,0.7L302,97.2h-22l-19.1,0.1l0.1-1.9l4.9-1
		c0.6-0.1,1-0.7,1.1-1.8V4.7c-0.1-1.1-0.5-1.7-1.1-1.8L261,2.2l-0.1-2.1L279.9,0z"/>
</g>
<g>
	<path class="st0" d="M0,105.5l0-1.1h6.3l11.5,35.5l11.3-35.5h6.3c0,0.1,0,0.3,0,0.5c0,0.2,0,0.4,0,0.6l-2.5,0.4
		c-0.3,0-0.5,0.4-0.6,0.9v45.4l3.5,0.3c0,0,0,0.4,0,1.1l-9.6,0.1l0-1l2.5-0.5c0.3,0,0.5-0.3,0.6-0.8v-44.3l-10.9,34.6l-1,2.8h-1.1
		L4.2,106.9V152l5.5,0.4c0,0,0,0.4,0,1.1L0,153.5l0-1l2.5-0.5c0.3,0,0.5-0.4,0.6-0.9v-44.4c-0.1-0.6-0.3-0.9-0.6-0.9L0,105.5z"/>
	<path class="st0" d="M39,129.1c0-7.7,1.3-13.9,4-18.4c2.7-4.6,6.1-6.9,10.1-6.9c9.4,0,14.1,8.4,14.1,25.3c0,7.8-1.3,13.9-4,18.3
		c-2.7,4.5-6.1,6.7-10.1,6.7C43.7,154.1,39,145.8,39,129.1z M42.2,128.9c0,15.8,3.6,23.8,10.9,23.8c3.1,0,5.7-2.1,7.8-6.3
		c2.1-4.2,3.1-10,3.1-17.5c0-15.8-3.6-23.8-10.9-23.8c-3.1,0-5.7,2.1-7.8,6.4C43.3,115.8,42.2,121.6,42.2,128.9z"/>
	<path class="st0" d="M78.7,105.8h-8.2l-0.8,9.3l-0.9-0.6l0.5-8.7h0l0.1-0.6l0-0.8l0.1,0.1v-0.1h21.8l0.6,10.1l-1,0.6l-0.8-9.3h-8.4
		v46.3l3.5,0.3c0,0,0,0.4,0,1.1l-9.6,0.1c0-0.4,0-0.7,0-1l2.5-0.5c0.3,0,0.5-0.4,0.6-0.9V105.8z"/>
	<path class="st0" d="M122.7,104.4c0,0,0,0.4,0,1.1l-3,0.5v46.2l3.5,0.3c0,0,0,0.4,0,1.1l-9.6,0.1c0-0.4,0-0.7,0-1l2.5-0.5
		c0.3,0,0.5-0.4,0.6-0.9v-21.3h-16.3v22.3l3.5,0.3c0,0,0,0.4,0,1.1l-9.6,0.1l0-1l2.5-0.5c0.3,0,0.5-0.3,0.6-0.8v-44.5
		c-0.1-0.6-0.3-0.9-0.6-0.9l-2.5-0.3l0-1.1l9.6-0.1c0,0,0,0.4,0,1.1l-3.5,0.5v22.5h16.3v-21.6c-0.1-0.6-0.3-0.9-0.6-1l-2.5-0.3
		c0-0.3,0-0.6,0-1.1L122.7,104.4z"/>
	<path class="st0" d="M126.4,105.5l0-1.1H147l0,0.2l0.6,9.9l-1,0.6l-0.8-9.3h-13v22.6h11.5c0.2,0,0.3,0,0.4-0.2
		c0.1-0.2,0.2-0.4,0.2-0.7l0.2-4.8l0.8-0.1v12c0,0-0.3,0-0.7,0.1l-0.2-4.8h-12.1v22.2h14.3l0.9-11.2l0.9,0.4l-0.7,12.3H136l-9.6,0.1
		l0-1l2.5-0.5c0.3,0,0.5-0.4,0.6-0.9v-44.4c-0.1-0.6-0.3-0.9-0.6-0.9L126.4,105.5z"/>
	<path class="st0" d="M151.9,105.5l0-1.1h11.6c3.3,0,5.8,1.1,7.6,3.2c1.8,2.1,2.7,5.2,2.7,9.4c0,2.7-0.7,5.5-2.1,8.5
		c-1.4,2.9-2.8,4.8-4,5.7l8.9,21.1l2.3,0.2c0,0,0,0.4,0,1.1l-5.2,0.1l-9.1-21.6h-6.4v20.2l3.4,0.3c0,0,0,0.4,0,1.1l-9.6,0.1l0-1
		l2.5-0.5c0.2,0,0.4-0.3,0.5-0.6v-44.9c-0.1-0.4-0.3-0.7-0.5-0.7L151.9,105.5z M163.3,105.5h-5.1v25.5h8.2c1.7-2.8,2.8-5.2,3.4-7.3
		c0.6-2.1,0.9-4.2,0.9-6.2c0-3.9-0.6-6.9-1.9-8.9C167.5,106.5,165.7,105.5,163.3,105.5z"/>
	<path class="st0" d="M209.8,104.4c0,0,0,0.4,0,1.1l-3,0.5v46.2l3.5,0.3c0,0,0,0.4,0,1.1l-9.6,0.1c0-0.4,0-0.7,0-1l2.5-0.5
		c0.3,0,0.5-0.4,0.6-0.9v-21.3h-16.3v22.3l3.5,0.3c0,0,0,0.4,0,1.1l-9.6,0.1l0-1l2.5-0.5c0.3,0,0.5-0.3,0.6-0.8v-44.5
		c-0.1-0.6-0.3-0.9-0.6-0.9l-2.5-0.3l0-1.1l9.6-0.1c0,0,0,0.4,0,1.1l-3.5,0.5v22.5h16.3v-21.6c-0.1-0.6-0.3-0.9-0.6-1l-2.5-0.3
		c0-0.3,0-0.6,0-1.1L209.8,104.4z"/>
	<path class="st0" d="M213.7,129.1c0-7.7,1.3-13.9,4.1-18.4c2.7-4.6,6.1-6.9,10.1-6.9c9.4,0,14.1,8.4,14.1,25.3
		c0,7.8-1.3,13.9-4,18.3c-2.7,4.5-6.1,6.7-10.1,6.7C218.4,154.1,213.7,145.8,213.7,129.1z M216.9,128.9c0,15.8,3.6,23.8,10.9,23.8
		c3.1,0,5.7-2.1,7.8-6.3c2.1-4.2,3.1-10,3.1-17.5c0-15.8-3.6-23.8-10.9-23.8c-3.1,0-5.7,2.1-7.8,6.4
		C218,115.8,216.9,121.6,216.9,128.9z"/>
	<path class="st0" d="M245.8,129.1c0-7.7,1.3-13.9,4.1-18.4c2.7-4.6,6.1-6.9,10.1-6.9c9.4,0,14.1,8.4,14.1,25.3
		c0,7.8-1.3,13.9-4,18.3c-2.7,4.5-6.1,6.7-10.1,6.7C250.5,154.1,245.8,145.8,245.8,129.1z M249.1,128.9c0,15.8,3.6,23.8,10.9,23.8
		c3.1,0,5.7-2.1,7.8-6.3c2.1-4.2,3.1-10,3.1-17.5c0-15.8-3.6-23.8-10.9-23.8c-3.1,0-5.7,2.1-7.8,6.4
		C250.1,115.8,249.1,121.6,249.1,128.9z"/>
	<path class="st0" d="M277.2,105.5l0-1.1H289c4.3,0,7.8,1.8,10.4,5.5c2.6,3.7,3.9,9.6,3.9,17.9c0,8.2-0.9,14.3-2.7,18.4
		c-1.6,3.6-4.1,5.8-7.5,6.7c-1.5,0.4-3.3,0.6-5.3,0.6h-0.9l-9.6,0.1l0-1l2.5-0.5c0.3,0,0.5-0.4,0.6-0.9v-44.3
		c-0.1-0.6-0.3-0.9-0.6-1L277.2,105.5z M288.7,105.5h-5.1v47h3.9c1.5,0,2.8-0.1,3.9-0.4c1.1-0.3,2.2-0.9,3.4-1.8
		c1.2-1,2.1-2.3,2.8-4c1.6-4,2.4-10,2.4-18.1c0-8.4-1.1-14.4-3.4-17.9C294.5,107.1,291.9,105.5,288.7,105.5z"/>
</g>
</svg>
